<?xml version="1.0" standalone="no"?>
<!DOCTYPE svg PUBLIC "-//W3C//DTD SVG 20010904//EN"
 "http://www.w3.org/TR/2001/REC-SVG-20010904/DTD/svg10.dtd">
<svg version="1.0" xmlns="http://www.w3.org/2000/svg"
 width="1200.000000pt" height="1200.000000pt" viewBox="0 0 1200.000000 1200.000000"
 preserveAspectRatio="xMidYMid meet">
<g transform="translate(0.000000,1200.000000) scale(0.100000,-0.100000)"
fill="#000000" stroke="none">
<path d="M11460 11984 c-36 -8 -76 -16 -90 -19 -63 -12 -78 -15 -120 -25 -25
-5 -57 -12 -72 -15 -16 -3 -38 -7 -50 -10 -55 -11 -626 -127 -648 -131 -14 -2
-36 -7 -50 -10 -14 -3 -36 -8 -50 -11 -14 -2 -90 -18 -170 -34 -80 -17 -156
-32 -170 -35 -14 -2 -36 -7 -50 -10 -14 -3 -36 -8 -48 -10 -13 -3 -110 -22
-215 -44 -106 -21 -203 -41 -217 -44 -41 -8 -233 -47 -255 -52 -11 -2 -29 -6
-40 -8 -11 -2 -166 -34 -345 -71 -179 -36 -332 -68 -341 -70 -9 -2 -33 -6 -54
-9 -20 -4 -40 -8 -44 -10 -3 -2 -22 -7 -41 -10 -28 -4 -427 -85 -505 -101 -44
-10 -230 -47 -254 -51 -14 -3 -54 -11 -89 -19 -34 -8 -77 -17 -95 -20 -17 -3
-88 -17 -157 -31 -69 -14 -168 -35 -220 -45 -52 -11 -108 -22 -125 -25 -16 -3
-68 -14 -115 -24 -47 -10 -98 -21 -115 -24 -16 -3 -75 -15 -130 -26 -55 -12
-111 -23 -125 -26 -14 -3 -70 -14 -125 -25 -55 -12 -109 -23 -120 -25 -11 -2
-42 -8 -70 -14 -27 -6 -61 -12 -74 -15 -14 -3 -70 -14 -125 -26 -126 -26 -98
-20 -343 -70 -114 -23 -212 -42 -218 -44 -5 -1 -28 -5 -50 -10 -48 -9 -68 -13
-97 -20 -13 -3 -35 -7 -51 -10 -15 -3 -60 -12 -100 -21 -117 -25 -107 -23
-197 -39 -8 -2 -96 -20 -195 -40 -99 -20 -190 -39 -203 -41 -12 -3 -95 -20
-185 -39 -89 -18 -175 -36 -192 -39 -16 -3 -118 -24 -225 -46 -107 -22 -204
-42 -215 -44 -11 -2 -69 -14 -130 -26 l-110 -22 2 -3530 c1 -3225 0 -3529 -14
-3523 -9 3 -49 10 -89 16 -40 5 -82 12 -94 14 -50 10 -215 19 -340 18 -128 0
-306 -10 -319 -17 -3 -2 -34 -7 -69 -10 -34 -3 -81 -10 -105 -15 -23 -6 -56
-12 -73 -15 -201 -36 -513 -148 -744 -268 -310 -162 -602 -401 -780 -641 -34
-45 -67 -89 -75 -98 -54 -67 -161 -283 -202 -409 -57 -172 -68 -242 -68 -440
0 -199 22 -310 91 -478 167 -404 572 -727 1084 -865 99 -27 102 -28 240 -52
218 -39 581 -42 805 -6 33 6 80 13 105 16 24 4 47 8 51 10 3 2 21 7 40 10 181
31 535 157 715 256 33 17 73 38 89 47 17 8 86 52 155 98 522 346 848 828 896
1324 4 41 8 1534 8 3317 1 1783 4 3244 7 3247 3 3 23 8 45 12 21 3 71 12 109
21 39 8 80 16 92 19 11 2 142 29 290 59 147 31 336 69 418 86 83 16 159 32
170 34 35 8 227 47 254 51 14 3 54 11 89 19 34 8 77 17 95 20 33 6 383 77 587
120 63 13 129 26 145 29 65 12 92 18 160 32 38 9 81 18 95 20 14 3 70 14 125
25 55 12 107 22 115 24 52 11 329 66 345 69 11 3 120 25 243 50 122 25 233 48
245 50 26 6 363 75 392 82 11 2 65 13 120 23 55 11 109 22 120 25 42 9 281 58
305 62 14 2 57 11 95 19 39 8 81 17 95 20 14 3 59 12 100 20 41 8 84 17 95 19
11 3 40 9 65 14 25 6 61 13 80 16 19 3 76 15 127 26 51 11 109 23 130 26 21 3
41 8 44 9 3 2 26 7 51 10 l45 6 0 -2400 0 -2399 -21 4 c-341 66 -676 66 -1031
-2 -290 -56 -523 -136 -780 -268 -376 -194 -676 -456 -887 -776 -99 -150 -194
-365 -223 -505 -31 -145 -35 -181 -36 -298 -4 -422 193 -798 561 -1069 269
-198 641 -330 1030 -366 149 -14 514 -6 604 13 12 2 39 6 61 9 22 3 51 8 65
11 14 3 51 10 82 15 141 26 489 138 585 189 10 5 54 26 98 47 231 110 466 276
651 459 180 178 293 331 387 521 41 83 92 207 102 250 27 110 46 213 51 278 4
60 10 8691 5 8794 -1 12 -4 22 -8 21 -5 0 -37 -7 -73 -15z"/>
</g>
</svg>
